<svg xmlns="http://www.w3.org/2000/svg" version="1.1" xmlns:xlink="http://www.w3.org/1999/xlink" xmlns:svgjs="http://svgjs.com/svgjs" width="512" height="512" x="0" y="0" viewBox="0 0 512 512" style="enable-background:new 0 0 512 512" xml:space="preserve" class=""><g transform="matrix(4.898587196589412e-17,0.7999999999999999,-0.7999999999999999,4.898587196589412e-17,460.8020118806512,51.202671253401746)"><path d="m448.7 130.7-89.728 89.728a24 24 0 0 1-33.942-33.941l72.759-72.758-72.758-72.758a24 24 0 0 1 33.942-33.942L448.7 96.758a24 24 0 0 1 0 33.942zm-98.517-16.971a24 24 0 0 0-24-24H209.526c-84.505 0-153.256 68.751-153.256 153.257V488a24 24 0 0 0 48 0V242.986a105.375 105.375 0 0 1 105.256-105.257h116.658a24 24 0 0 0 24-24z" fill="#000000" data-original="#000000"></path></g></svg>