<svg xmlns="http://www.w3.org/2000/svg" version="1.1" xmlns:xlink="http://www.w3.org/1999/xlink" xmlns:svgjs="http://svgjs.com/svgjs" width="512" height="512" x="0" y="0" viewBox="0 0 512 512" style="enable-background:new 0 0 512 512" xml:space="preserve" class=""><g transform="matrix(0.8,0,0,0.8,51.19999999999999,51.19999999999999)"><path d="M32 32h351.2V0H0v384h32zM480 128v352H128.8v32H512V128z" fill="#219ebc" data-original="#000000" opacity="1" class=""></path><path d="M208 384h32V272H128v32h57.376L95.2 394.176l22.624 22.624L208 326.624zM72.598 462.072 49.97 439.445l22.628-22.628 22.627 22.628zM27.283 507.292 4.656 484.665l22.627-22.627 22.628 22.627zM304 128h-32v112h112v-32h-57.376l90.176-90.176L394.176 95.2 304 185.376zM439.43 49.928l22.628 22.627-22.628 22.627-22.627-22.627zM484.658 4.708l22.628 22.628-22.628 22.627-22.627-22.627z" fill="#219ebc" data-original="#000000" opacity="1" class=""></path></g></svg>