<svg xmlns="http://www.w3.org/2000/svg" version="1.1" xmlns:xlink="http://www.w3.org/1999/xlink" xmlns:svgjs="http://svgjs.com/svgjs" width="512" height="512" x="0" y="0" viewBox="0 0 24 24" style="enable-background:new 0 0 512 512" xml:space="preserve" class=""><g><path d="M20.5 24a.5.5 0 0 1-.5-.5v-18c0-.827-.673-1.5-1.5-1.5H.5a.5.5 0 0 1 0-1h18C19.879 3 21 4.122 21 5.5v18a.5.5 0 0 1-.5.5z" fill="#ffb703" data-original="#000000" opacity="1"></path><path d="M23.5 21h-18A2.502 2.502 0 0 1 3 18.5V.5a.5.5 0 0 1 1 0v18c0 .827.673 1.5 1.5 1.5h18a.5.5 0 0 1 0 1z" fill="#ffb703" data-original="#000000" opacity="1"></path><path d="M8 11c-1.103 0-2-.897-2-2s.897-2 2-2 2 .897 2 2-.897 2-2 2zm0-3a1.001 1.001 0 0 0 0 2 1.001 1.001 0 0 0 0-2zM3.5 18a.5.5 0 0 1-.354-.853l2.79-2.79c.566-.566 1.561-.566 2.127 0L9.5 15.793l4.937-4.937c.564-.566 1.562-.566 2.127 0l4.29 4.29a.5.5 0 0 1-.707.707l-4.29-4.29a.521.521 0 0 0-.713 0l-5.29 5.29a.5.5 0 0 1-.707 0l-1.79-1.79a.521.521 0 0 0-.713 0l-2.79 2.79A.5.5 0 0 1 3.5 18z" fill="#ffb703" data-original="#000000" opacity="1"></path></g></svg>