<svg xmlns="http://www.w3.org/2000/svg" version="1.1" xmlns:xlink="http://www.w3.org/1999/xlink" xmlns:svgjs="http://svgjs.com/svgjs" width="512" height="512" x="0" y="0" viewBox="0 0 510 510" style="enable-background:new 0 0 512 512" xml:space="preserve" class=""><g transform="matrix(0.8,0,0,0.8,51,51)"><path d="M510 405h-75V75H105V0H75v75H0v30h75v330h330v75h30v-75h75zm-405 0V105h300v300zM448.719 40.065 487.838.946l21.21 21.21-39.12 39.119z" fill="#023047" data-original="#000000" opacity="1" class=""></path><path d="m302.844 185.91 39.618-39.62 21.21 21.21-39.62 39.619zM223.676 265.059l39.773-39.774 21.21 21.21-39.773 39.774zM144.344 344.375l39.772-39.773 21.21 21.21-39.773 39.773zM2.447 486.242l38.752-38.752 21.21 21.21-38.752 38.752z" fill="#023047" data-original="#000000" opacity="1" class=""></path></g></svg>