<svg xmlns="http://www.w3.org/2000/svg" version="1.1" xmlns:xlink="http://www.w3.org/1999/xlink" xmlns:svgjs="http://svgjs.com/svgjs" width="512" height="512" x="0" y="0" viewBox="0 0 201 241" style="enable-background:new 0 0 512 512" xml:space="preserve" class=""><g><g fill="#00c650"><path d="M140.1 49.25a20.642 20.642 0 0 1-20.62-20.62V0H27.34A26.91 26.91 0 0 0 .43 26.91v162.22a26.908 26.908 0 0 0 26.91 26.91h110.6a26.907 26.907 0 0 0 26.91-26.91V49.25z" opacity=".15" fill="#00c650" data-original="#00c650"></path><path d="M164.85 49.25H140.1a20.642 20.642 0 0 1-20.62-20.62V0zM184.37 170.61H59.33c-8.87 0-16.06 7.19-16.06 16.06v37.28c0 8.87 7.19 16.06 16.06 16.06h125.04c8.87 0 16.06-7.19 16.06-16.06v-37.28c0-8.87-7.19-16.06-16.06-16.06z" fill="#00c650" data-original="#00c650"></path></g><path fill="#ffffff" d="M78.472 224.541c-1.139-.782-1.309-1.785-.51-3.009l9.333-13.77-9.843-13.872c-.765-1.122-.578-2.125.561-3.009 1.173-.799 2.159-.612 2.958.561l9.129 12.801 9.18-12.801c.884-1.139 1.87-1.292 2.958-.459 1.156.85 1.326 1.836.51 2.958l-10.047 13.974 9.639 13.566c.799 1.173.612 2.193-.561 3.06-1.173.799-2.159.612-2.958-.561l-8.874-12.495-8.466 12.546c-.782 1.105-1.785 1.275-3.009.51zM113.457 225c-1.428 0-2.142-.714-2.142-2.142v-30.294c0-1.428.714-2.142 2.142-2.142s2.142.714 2.142 2.142v28.152h14.127c1.428 0 2.142.714 2.142 2.142s-.714 2.142-2.142 2.142zM147.551 225c-2.907 0-5.176-.586-6.808-1.759-1.615-1.173-2.627-2.984-3.035-5.432-.068-.748.085-1.309.459-1.683s.918-.561 1.632-.561 1.233.17 1.556.51c.34.34.569.867.688 1.581.255 1.173.799 1.981 1.632 2.423.85.425 2.142.637 3.876.637h7.344c2.193 0 3.681-.391 4.463-1.173.799-.799 1.198-2.278 1.198-4.437 0-2.193-.408-3.689-1.224-4.488-.816-.816-2.295-1.224-4.437-1.224h-6.324c-3.213 0-5.601-.782-7.165-2.346-1.547-1.581-2.321-3.978-2.321-7.191 0-3.196.765-5.567 2.295-7.115 1.547-1.546 3.927-2.32 7.14-2.32h6.069c2.703 0 4.82.553 6.35 1.658 1.547 1.105 2.524 2.796 2.932 5.074.102.731-.034 1.292-.408 1.683-.374.374-.935.561-1.683.561-.68 0-1.19-.178-1.53-.535s-.561-.876-.663-1.556c-.272-1.003-.79-1.683-1.555-2.04-.765-.374-1.913-.561-3.443-.561h-6.069c-2.04 0-3.408.366-4.105 1.096-.697.715-1.046 2.066-1.046 4.055 0 2.006.357 3.383 1.071 4.131s2.091 1.122 4.131 1.122h6.324c3.349 0 5.84.816 7.472 2.448 1.649 1.632 2.473 4.148 2.473 7.548 0 3.383-.816 5.882-2.448 7.497-1.632 1.598-4.131 2.397-7.497 2.397z" data-original="#ffffff"></path><path fill="#00c650" fill-rule="evenodd" d="M119.32 150.84H46c-6.35 0-11.52-6.32-11.52-14.1V83.55c0-7.77 5.17-14.09 11.52-14.09h73.35c6.34 0 11.51 6.32 11.51 14.09v53.19c-.03 7.78-5.2 14.1-11.54 14.1zM46 76.66c-3.11 0-5.63 3.09-5.63 6.89v7.54a3 3 0 0 0 3 3h14.2a3 3 0 0 0 3-3V79.66a3 3 0 0 0-3-3zm21.78 3a3 3 0 0 1 3-3H94.5a3 3 0 0 1 3 3v11.43a3 3 0 0 1-3 3H70.78a3 3 0 0 1-3-3zm0 24.64a3 3 0 0 1 3-3H94.5a3 3 0 0 1 3 3v11.51a3 3 0 0 1-3 3H70.78a3 3 0 0 1-3-3zm-7.21 0a3 3 0 0 0-3-3h-14.2a3 3 0 0 0-3 3v11.51a3 3 0 0 0 3 3h14.2a3 3 0 0 0 3-3zm0 24.72a3 3 0 0 0-3-3h-14.2a3 3 0 0 0-3 3v7.72c0 3.8 2.52 6.89 5.63 6.89h11.57a3 3 0 0 0 3-3zm7.21 11.61a3 3 0 0 0 3 3H94.5a3 3 0 0 0 3-3v-11.61a3 3 0 0 0-3-3H70.78a3 3 0 0 0-3 3zm39.93-39.33a3 3 0 0 0-3 3v11.51a3 3 0 0 0 3 3h14.26a3 3 0 0 0 3-3V104.3a3 3 0 0 0-3-3zm0 24.72a3 3 0 0 0-3 3v11.61a3 3 0 0 0 3 3h11.64c3.1 0 5.62-3.09 5.62-6.89v-7.72a3 3 0 0 0-3-3zm0-49.36a3 3 0 0 0-3 3v11.43a3 3 0 0 0 3 3h14.26a3 3 0 0 0 3-3v-7.54c0-3.8-2.52-6.89-5.62-6.89z" clip-rule="evenodd" data-original="#00c650"></path></g></svg>