<svg xmlns="http://www.w3.org/2000/svg" version="1.1" xmlns:xlink="http://www.w3.org/1999/xlink" xmlns:svgjs="http://svgjs.com/svgjs" width="512" height="512" x="0" y="0" viewBox="0 0 128 128" style="enable-background:new 0 0 512 512" xml:space="preserve" class=""><g><path d="M26.434 56.019v58.958c0 1.299-.028 2.602 0 3.902.094 4.337 3.505 7.586 7.808 7.621 4.086.033 8.173 0 12.259 0h67.164c1.013 0 2.047.058 3.058-.024 4.222-.34 7.065-3.819 7.082-7.943.017-4.102 0-8.205 0-12.307V31.494c0-.256.026-.528 0-.783-.081-.795-.548-1.176-1.063-1.691l-15.066-15.08-8.339-8.346C98.145 4.398 97 3.008 95.688 1.939c-.989-.805-2.999-.439-4.177-.439H36.748c-1.668 0-3.511-.163-5.108.385-2.926 1.002-4.935 3.622-5.182 6.697-.098 1.214-.024 2.457-.024 3.674v9.578c0 1.93 3 1.934 3 0V13.63c0-2.743-.65-6.432 1.908-8.273 1.326-.955 2.826-.857 4.353-.857h58.932l-1.061-.439 24.213 24.235 3.466 3.469-.439-1.061v87.092c0 .367.009.736 0 1.103-.062 2.659-2.135 4.575-4.755 4.6-6.273.06-12.549 0-18.823 0H37.115c-2.343 0-5 .366-6.666-1.698-1.503-1.862-1.015-5.04-1.015-7.286V56.018c0-1.929-3-1.932-3 .001z" fill="#fb8500" data-original="#000000" class="" opacity="1"></path><path d="M122.316 29.194h-20.281c-1.309 0-2.552.042-3.727-.684-1.621-1.001-2.185-2.672-2.185-4.478V2.999L93.562 4.06l24.226 24.226 3.468 3.468c1.367 1.367 3.489-.754 2.121-2.121L99.151 5.407l-3.468-3.468C94.764 1.021 93.122 1.7 93.122 3v20.798c0 1.888.306 3.695 1.459 5.259 1.513 2.051 3.825 3.115 6.349 3.137 3.529.03 7.06 0 10.589 0h10.797c1.93 0 1.934-3 0-3zM74.436 26.919v19.746c0 2.545.708 6.5-2.312 7.636-1.242.467-2.939.227-4.233.227H13.672c-1.352 0-3.163.253-4.425-.333-2.785-1.293-2.063-5.234-2.063-7.727V33.972c0-2.428-.232-4.981.012-7.401.194-1.927 1.817-3.192 3.682-3.235.506-.012 1.013 0 1.519 0h44.372c4.66 0 9.338-.119 13.996 0 2.039.052 3.601 1.52 3.671 3.583.065 1.925 3.065 1.934 3 0-.11-3.259-2.399-6.065-5.694-6.51-.587-.079-1.158-.073-1.747-.073H15.126c-1.444 0-2.893-.038-4.337 0-2.779.073-5.247 1.719-6.212 4.36-.428 1.172-.394 2.369-.394 3.589v22.073c0 3.964 2.673 7.128 6.778 7.17 1.748.018 3.498 0 5.246 0h48.267c1.981 0 3.963.008 5.944 0 3.908-.016 6.973-2.773 7.017-6.77.079-7.215 0-14.434 0-21.649V26.92c.001-1.931-2.999-1.934-2.999-.001zM87.064 100.133l13.482-6.528 1.935-.937c.98-.474.98-2.116 0-2.59L88.999 83.55l-1.935-.937c-.729-.353-1.621-.199-2.052.538-.385.658-.194 1.698.538 2.052l13.482 6.528 1.935.937v-2.59l-13.482 6.528-1.935.937c-.729.353-.924 1.392-.538 2.052.435.744 1.32.892 2.052.538zM64.69 97.542l-13.482-6.528-1.935-.937v2.59l13.482-6.528 1.935-.937c.729-.353.924-1.392.538-2.052-.436-.745-1.321-.892-2.052-.538L49.694 89.14l-1.935.937c-.98.474-.98 2.116 0 2.59l13.482 6.528 1.935.937c.729.353 1.621.199 2.052-.538.385-.657.194-1.697-.538-2.052zM78.97 75.083l-9.278 27.835-1.316 3.948c-.612 1.836 2.284 2.623 2.893.798l9.278-27.835 1.316-3.948c.612-1.837-2.284-2.624-2.893-.798z" fill="#fb8500" data-original="#000000" class="" opacity="1"></path><path d="M25.42 45.394V32.705c0-1.93-3-1.934-3 0v12.689c0 1.931 3 1.934 3 0zM13.17 32.705v12.689c0 1.93 3 1.934 3 0V32.705c0-1.93-3-1.934-3 0z" fill="#fb8500" data-original="#000000" class="" opacity="1"></path><path d="M14.67 40.55h9.25c.785 0 1.536-.69 1.5-1.5-.036-.813-.659-1.5-1.5-1.5h-9.25c-.785 0-1.536.69-1.5 1.5.037.812.659 1.5 1.5 1.5zM33.929 45.394V33.08c0-1.93-3-1.934-3 0v12.314c0 1.931 3 1.934 3 0z" fill="#fb8500" data-original="#000000" class="" opacity="1"></path><path d="M27.418 34.58H37.44c.785 0 1.536-.69 1.5-1.5-.036-.813-.659-1.5-1.5-1.5H27.418c-.785 0-1.536.69-1.5 1.5.036.813.659 1.5 1.5 1.5zM55.721 45.394V32.389c0-1.444-2.089-2.1-2.795-.757l-5.777 10.984-.834 1.586h2.59l-5.777-10.984-.834-1.586c-.705-1.341-2.795-.689-2.795.757V45.394c0 1.93 3 1.934 3 0V32.389l-2.795.757 5.777 10.984.834 1.586c.514.977 2.076.977 2.59 0l5.777-10.984.834-1.586-2.795-.757V45.394c0 1.931 3 1.934 3 0zM58.077 32.389v13.005c0 .811.687 1.5 1.5 1.5h7.195c1.93 0 1.934-3 0-3h-7.195l1.5 1.5V32.389c0-1.931-3-1.934-3 0z" fill="#fb8500" data-original="#000000" class="" opacity="1"></path></g></svg>