<svg xmlns="http://www.w3.org/2000/svg" version="1.1" xmlns:xlink="http://www.w3.org/1999/xlink" xmlns:svgjs="http://svgjs.com/svgjs" width="512" height="512" x="0" y="0" viewBox="0 0 682.667 682.667" style="enable-background:new 0 0 512 512" xml:space="preserve" class=""><g><defs><clipPath id="a" clipPathUnits="userSpaceOnUse"><path d="M0 512h512V0H0Z" fill="#219ebc" data-original="#000000" class="" opacity="1"></path></clipPath></defs><g clip-path="url(#a)" transform="matrix(1.33333 0 0 -1.33333 0 682.667)"><path d="M0 0c-2.331 3.403-7.353 3.403-9.684 0l-97.827-142.883H60.566a8.121 8.121 0 0 1 8.122 8.12v34.34z" style="stroke-width:15;stroke-linecap:round;stroke-linejoin:round;stroke-miterlimit:10;stroke-dasharray:none;stroke-opacity:1" transform="translate(291.158 297.411)" fill="none" stroke="#219ebc" stroke-width="15" stroke-linecap="round" stroke-linejoin="round" stroke-miterlimit="10" stroke-dasharray="none" stroke-opacity="" data-original="#000000" opacity="1" class=""></path><path d="m0 0-59.799-86.331v-4.844a8.12 8.12 0 0 1 8.12-8.12H6.869l35.399 51.702L9.683 0C7.353 3.403 2.331 3.403 0 0Z" style="stroke-width:15;stroke-linecap:round;stroke-linejoin:round;stroke-miterlimit:10;stroke-dasharray:none;stroke-opacity:1" transform="translate(176.778 253.823)" fill="none" stroke="#219ebc" stroke-width="15" stroke-linecap="round" stroke-linejoin="round" stroke-miterlimit="10" stroke-dasharray="none" stroke-opacity="" data-original="#000000" opacity="1" class=""></path><path d="M0 0c-12.243 0-22.168-9.925-22.168-22.168 0-12.243 9.925-22.168 22.168-22.168 12.243 0 22.167 9.925 22.167 22.168C22.167-9.925 12.243 0 0 0Z" style="stroke-width:15;stroke-linecap:round;stroke-linejoin:round;stroke-miterlimit:10;stroke-dasharray:none;stroke-opacity:1" transform="translate(220.874 322.533)" fill="none" stroke="#219ebc" stroke-width="15" stroke-linecap="round" stroke-linejoin="round" stroke-miterlimit="10" stroke-dasharray="none" stroke-opacity="" data-original="#000000" opacity="1" class=""></path><path d="M0 0c94.688-9.522 170.358-86.1 178.462-181.184.36-4.219-2.965-7.849-7.201-7.849h-27.325c-4.817 0-7.457-5.609-4.387-9.321l49.473-59.837c2.277-2.755 6.499-2.755 8.775 0l49.474 59.837c3.07 3.712.43 9.321-4.387 9.321h-27.693c-3.809 0-6.939 2.959-7.202 6.759-8.207 118.348-107.577 212.64-227.917 212.64h-.001c-125.666 0-228.483-102.817-228.483-228.483 0-124.091 100.256-225.903 223.769-228.436 2.583-.052 4.714 2.016 4.714 4.6v20.178a4.586 4.586 0 0 1-4.479 4.587c-107.47 2.403-194.642 91.05-194.642 199.071C-219.05-93.669-137.547-7.336-35 .433" style="stroke-width:15;stroke-linecap:round;stroke-linejoin:round;stroke-miterlimit:10;stroke-dasharray:none;stroke-opacity:1" transform="translate(255.912 454.094)" fill="none" stroke="#219ebc" stroke-width="15" stroke-linecap="round" stroke-linejoin="round" stroke-miterlimit="10" stroke-dasharray="none" stroke-opacity="" data-original="#000000" opacity="1" class=""></path><path d="M0 0v37.251a8.121 8.121 0 0 1-8.121 8.121h-226.625a8.121 8.121 0 0 1-8.121-8.121v-174.968a8.12 8.12 0 0 1 8.121-8.12H-8.121A8.12 8.12 0 0 1 0-137.717V-35" style="stroke-width:15;stroke-linecap:round;stroke-linejoin:round;stroke-miterlimit:10;stroke-dasharray:none;stroke-opacity:1" transform="translate(359.846 300.365)" fill="none" stroke="#219ebc" stroke-width="15" stroke-linecap="round" stroke-linejoin="round" stroke-miterlimit="10" stroke-dasharray="none" stroke-opacity="" data-original="#000000" opacity="1" class=""></path></g></g></svg>