<svg xmlns="http://www.w3.org/2000/svg" version="1.1" xmlns:xlink="http://www.w3.org/1999/xlink" xmlns:svgjs="http://svgjs.com/svgjs" width="512" height="512" x="0" y="0" viewBox="0 0 24 24" style="enable-background:new 0 0 512 512" xml:space="preserve" class=""><g><g fill="#000" fill-rule="evenodd" clip-rule="evenodd"><path d="M7 7.75a1.25 1.25 0 1 0 0 2.5 1.25 1.25 0 0 0 0-2.5zM4.25 9a2.75 2.75 0 1 1 5.5 0 2.75 2.75 0 0 1-5.5 0zM10.146 15.605c-1.25 1.4-2.554 3.313-3.932 5.763a.75.75 0 0 1-1.307-.736c1.407-2.5 2.771-4.516 4.12-6.026 1.345-1.507 2.712-2.552 4.132-3.043 1.448-.502 2.893-.408 4.319.256 1.4.653 2.757 1.844 4.104 3.497a.75.75 0 0 1-1.163.948c-1.272-1.562-2.46-2.565-3.575-3.085-1.09-.508-2.133-.566-3.194-.2-1.088.378-2.251 1.223-3.504 2.626z" fill="#ffc407" data-original="#000000" opacity="1"></path><path d="M1.641 3.641A4.75 4.75 0 0 1 5 2.25h7.28a.75.75 0 0 1 0 1.5H5A3.25 3.25 0 0 0 1.75 7v10A3.25 3.25 0 0 0 5 20.25h12A3.25 3.25 0 0 0 20.25 17v-5a.75.75 0 0 1 1.5 0v5A4.75 4.75 0 0 1 17 21.75H5A4.75 4.75 0 0 1 .25 17V7c0-1.26.5-2.468 1.391-3.359z" fill="#ffc407" data-original="#000000" opacity="1"></path><path d="M18.75.08a.75.75 0 0 1 .75.75v8a.75.75 0 0 1-1.5 0v-8a.75.75 0 0 1 .75-.75z" fill="#ffc407" data-original="#000000" opacity="1"></path><path d="M18.22.3a.75.75 0 0 1 1.061 0l3.2 3.2a.75.75 0 0 1-1.06 1.06l-2.67-2.67-2.67 2.67a.75.75 0 1 1-1.06-1.06z" fill="#ffc407" data-original="#000000" opacity="1"></path></g></g></svg>