<svg xmlns="http://www.w3.org/2000/svg" version="1.1" xmlns:xlink="http://www.w3.org/1999/xlink" xmlns:svgjs="http://svgjs.com/svgjs" width="512" height="512" x="0" y="0" viewBox="0 0 791.454 791.454" style="enable-background:new 0 0 512 512" xml:space="preserve" class=""><g><path fill="#e03303" fill-rule="evenodd" d="M202.808 0h264.609l224.265 233.758v454.661c0 56.956-46.079 103.035-102.838 103.035H202.808c-56.956 0-103.035-46.079-103.035-103.035V103.035C99.772 46.079 145.851 0 202.808 0z" clip-rule="evenodd" data-original="#e03303"></path><g fill="#fff"><path fill-rule="evenodd" d="M467.219 0v231.978h224.463z" clip-rule="evenodd" opacity=".302" fill="#ffffff" data-original="#ffffff"></path><path d="M224.166 566.2V422.425h61.109c15.03 0 27.094 4.153 36.191 12.657 8.899 8.306 13.448 19.381 13.448 33.422 0 13.844-4.549 25.116-13.448 33.422-9.097 8.306-21.161 12.459-36.191 12.459h-24.523V566.2zm36.587-83.061h20.37c5.537 0 9.69-1.187 12.855-3.758 2.966-2.571 4.351-6.328 4.351-10.877 0-4.746-1.384-8.306-4.351-10.877-3.164-2.571-7.317-3.955-12.855-3.955h-20.37zM350.34 566.2V422.425h61.109c15.03 0 27.094 4.153 36.191 12.657 9.097 8.306 13.448 19.381 13.448 33.422 0 13.844-4.351 25.116-13.448 33.422s-21.161 12.459-36.191 12.459h-24.325V566.2zm36.784-83.061h20.172c5.537 0 9.888-1.187 12.855-3.758 2.966-2.571 4.549-6.328 4.549-10.877 0-4.746-1.582-8.306-4.549-10.877s-7.317-3.955-12.855-3.955h-20.172zM513.891 566.2V453.672h-40.937v-31.247h118.857v31.247h-41.135V566.2z" fill="#ffffff" data-original="#ffffff"></path></g></g></svg>