<svg xmlns="http://www.w3.org/2000/svg" version="1.1" xmlns:xlink="http://www.w3.org/1999/xlink" xmlns:svgjs="http://svgjs.com/svgjs" width="512" height="512" x="0" y="0" viewBox="0 0 512 512" style="enable-background:new 0 0 512 512" xml:space="preserve" class=""><g transform="matrix(0.7999999999999999,0,0,0.7999999999999999,51.20000000000002,51.20000000000002)"><path d="M467 0h-30c-8.285 0-15 6.715-15 15s6.715 15 15 15h30c8.27 0 15 6.73 15 15v30c0 8.285 6.715 15 15 15s15-6.715 15-15V45c0-24.813-20.188-45-45-45zM497 422c-8.285 0-15 6.715-15 15v30c0 8.27-6.73 15-15 15h-30c-8.285 0-15 6.715-15 15s6.715 15 15 15h30c24.813 0 45-20.188 45-45v-30c0-8.285-6.715-15-15-15zM75 482H45c-8.27 0-15-6.73-15-15v-30c0-8.285-6.715-15-15-15s-15 6.715-15 15v30c0 24.813 20.188 45 45 45h30c8.285 0 15-6.715 15-15s-6.715-15-15-15zM173 482h-30c-8.285 0-15 6.715-15 15s6.715 15 15 15h30c8.285 0 15-6.715 15-15s-6.715-15-15-15zM241 0H45C20.187 0 0 20.188 0 45v196c0 24.813 20.188 45 45 45h196c24.813 0 45-20.188 45-45V45c0-24.813-20.188-45-45-45zm15 241c0 8.27-6.73 15-15 15H45c-8.27 0-15-6.73-15-15V45c0-8.27 6.73-15 15-15h196c8.27 0 15 6.73 15 15zM347 422c-8.285 0-15 6.715-15 15s6.715 15 15 15h90c.492 0 .988-.027 1.48-.074.223-.024.442-.067.665-.098.261-.039.527-.066.785-.117.254-.05.5-.121.75-.184.222-.058.449-.105.672-.175.246-.075.484-.165.722-.25.223-.082.446-.153.664-.243.227-.093.442-.203.66-.308.223-.106.45-.203.668-.32.211-.114.414-.243.622-.368.214-.129.43-.25.64-.386.227-.157.442-.325.664-.489.172-.129.348-.25.516-.386a15.151 15.151 0 0 0 2.094-2.094c.14-.172.261-.356.394-.531.16-.215.328-.422.477-.649.144-.215.27-.437.402-.656.117-.2.242-.395.355-.598.122-.226.223-.46.333-.691.097-.211.207-.422.296-.64.094-.223.168-.458.25-.684.082-.235.172-.461.246-.7.07-.23.122-.468.18-.703.059-.238.125-.476.176-.719.055-.273.086-.55.125-.824.031-.21.07-.418.09-.629.05-.496.078-.992.078-1.488V347c0-8.285-6.719-15-15-15-8.285 0-15 6.715-15 15v53.785l-104.399-104.39c-5.855-5.86-15.355-5.86-21.21 0-5.86 5.855-5.86 15.355 0 21.21L400.785 422zM271 482h-30c-8.285 0-15 6.715-15 15s6.715 15 15 15h30c8.285 0 15-6.715 15-15s-6.715-15-15-15zM369 482h-30c-8.285 0-15 6.715-15 15s6.715 15 15 15h30c8.285 0 15-6.715 15-15s-6.715-15-15-15zM339 30h30c8.285 0 15-6.715 15-15s-6.715-15-15-15h-30c-8.285 0-15 6.715-15 15s6.715 15 15 15zM497 324c-8.285 0-15 6.715-15 15v30c0 8.285 6.715 15 15 15s15-6.715 15-15v-30c0-8.285-6.715-15-15-15zM15 384c8.285 0 15-6.715 15-15v-30c0-8.285-6.715-15-15-15s-15 6.715-15 15v30c0 8.285 6.715 15 15 15zM497 226c-8.285 0-15 6.715-15 15v30c0 8.285 6.715 15 15 15s15-6.715 15-15v-30c0-8.285-6.715-15-15-15zM497 128c-8.285 0-15 6.715-15 15v30c0 8.285 6.715 15 15 15s15-6.715 15-15v-30c0-8.285-6.715-15-15-15zm0 0" fill="#023047" data-original="#000000" opacity="1" class=""></path></g></svg>