<svg xmlns="http://www.w3.org/2000/svg" version="1.1" xmlns:xlink="http://www.w3.org/1999/xlink" xmlns:svgjs="http://svgjs.com/svgjs" width="512" height="512" x="0" y="0" viewBox="0 0 512 512" style="enable-background:new 0 0 512 512" xml:space="preserve" class=""><g transform="matrix(0.8,0,0,0.8,51.19999999999999,51.19989700317382)"><path d="M194.05 236.016H76.428l53.815-53.815-28.261-28.261L0 255.92l101.902 103.06 28.42-28.102-54.277-54.894H194.05zM410.019 153.94l-28.261 28.261 53.814 53.815H317.951v39.968h118.004l-54.277 54.894 28.42 28.102L512 255.92z" fill="#ffb703" data-original="#000000" class="" opacity="1"></path><path d="M511.796 145.089V60.156c0-33.058-26.895-59.952-59.952-59.952H60.157C27.099.204.205 27.099.205 60.156v84.932h39.968V60.156c0-11.019 8.965-19.984 19.984-19.984h175.859v431.655H60.157c-11.019 0-19.984-8.965-19.984-19.984v-85.931H.205v85.931c0 33.058 26.895 59.952 59.952 59.952h391.687c33.058 0 59.952-26.895 59.952-59.952v-85.931h-39.968v85.931c0 11.019-8.965 19.984-19.984 19.984H275.985V40.172h175.859c11.019 0 19.984 8.965 19.984 19.984v84.932h39.968z" fill="#ffb703" data-original="#000000" class="" opacity="1"></path></g></svg>